<?xml version="1.0" encoding="UTF-8"?>
<svg width="700pt" height="700pt" version="1.1" viewBox="0 0 700 700" xmlns="http://www.w3.org/2000/svg">
 <path d="m89.949-0.015625c-11.023 0.015625-19.969 8.9609-19.969 19.984 0 0.98047 0.070312 1.9414 0.21094 2.9062l-0.015625-0.10547v157.31 0.28125c0 11.043 8.9609 19.984 19.984 19.984 11.023 0 19.984-8.9414 19.984-19.984v-0.29688 0.015625-111.63l125.79 125.79c3.6211 3.6211 8.6094 5.8438 14.121 5.8438 11.043 0 19.984-8.9609 19.984-19.984 0-5.5312-2.2383-10.516-5.8633-14.141l-125.79-125.79h111.65 0.28125c11.043 0 19.984-8.9609 19.984-19.984 0-11.023-8.9414-19.984-19.984-19.984h-0.29688-157.45c-0.78906-0.12109-1.7148-0.19141-2.6406-0.19141zm519.5 0.015625c-0.76953 0.015625-1.5039 0.085938-2.2227 0.19141l0.10547-0.015625h-157.41-0.28125c-11.043 0-19.984 8.9414-19.984 19.984 0 11.043 8.9414 19.984 19.984 19.984h0.29688 111.63l-125.79 125.79c-3.6211 3.6211-5.8633 8.6094-5.8633 14.141 0 11.043 8.9609 19.984 20.004 19.984 5.5117 0 10.516-2.2383 14.141-5.8438l125.79-125.79v111.63 0.28125c0 11.043 8.9414 19.984 19.984 19.984 11.043 0 19.984-8.9414 19.984-19.984v-0.29688 0.015625-157.45c0.10547-0.78906 0.17578-1.7148 0.17578-2.6406 0-11.043-8.9414-19.984-19.984-19.984-0.19141 0-0.40234 0-0.59375 0.015625zm-519.59 359.7c-10.922 0.17578-19.703 9.0469-19.703 19.984v0.29687-0.015624 159.9 0.050781 0.050782c0 0.57812 0.035156 1.1562 0.085938 1.7148l-0.015625-0.085937c0.015625 0.15625 0.015625 0.24609 0.015625 0.33203v-0.070313c0.050781 0.59375 0.14062 1.1016 0.22656 1.6094l-0.015625-0.12109c0.050781 0.31641 0.085938 0.50781 0.12109 0.68359l-0.015625-0.12109c0.42188 1.9414 1.0664 3.6758 1.9062 5.25l-0.050781-0.10547c0.12109 0.26172 0.21094 0.40234 0.29688 0.54297l-0.050782-0.10547c0.29688 0.52344 0.54297 0.94531 0.82422 1.3633l-0.050781-0.070312c0.12109 0.21094 0.21094 0.33203 0.29688 0.45312l-0.050781-0.070313c1.1211 1.5938 2.3984 2.9766 3.8516 4.1484l0.035156 0.035156c0.050782 0.035156 0.10547 0.10547 0.17578 0.15625l0.015625 0.015625c3.2539 2.5742 7.3867 4.1641 11.883 4.2695h0.015625c0.10547 0.015625 0.26172 0.015625 0.4375 0.015625h159.93 0.28125c11.043 0 19.984-8.9414 19.984-19.984 0-11.043-8.9414-19.984-19.984-19.984h-0.29688-111.61l125.77-125.79c3.7266-3.6406 6.0391-8.6992 6.0391-14.316 0-11.043-8.9414-19.984-19.984-19.984-0.19141 0-0.40234 0-0.59375 0.015624h0.035156c-5.3906 0.15625-10.238 2.4336-13.738 6.0195l-125.79 125.79v-111.65-0.26172c0-11.043-8.9609-19.984-19.984-19.984h-0.31641 0.015625zm519.7 0c-10.922 0.17578-19.703 9.0469-19.703 19.984v0.29687-0.015624 111.65l-125.79-125.79c-3.6406-3.7461-8.7148-6.0547-14.332-6.0547h-0.015625c-11.023 0.015625-19.969 8.9609-19.969 19.984 0 5.6172 2.3281 10.691 6.0547 14.316l125.77 125.79h-111.63-0.28125c-11.043 0-19.984 8.9414-19.984 19.984 0 11.043 8.9414 19.984 19.984 19.984h0.29688 159.88c2.1016 0 4.1484-0.33203 6.0547-0.94531l-0.14062 0.035156c0.12109-0.050781 0.14062-0.070312 0.15625-0.070312l-0.10547 0.050781c0.75391-0.22656 1.3633-0.45312 1.9766-0.71875l-0.12109 0.050781c0.15625-0.070312 0.19141-0.085937 0.22656-0.10547l-0.10547 0.050781c0.68359-0.29688 1.2422-0.57812 1.7852-0.875l-0.10547 0.050781c0.085937-0.050781 0.10547-0.085937 0.12109-0.085937l-0.050781 0.035156c1.0312-0.57812 1.9062-1.1562 2.7305-1.8008l-0.035157 0.035156c0.29688-0.22656 0.52344-0.42188 0.76953-0.62891l-0.035156 0.015625c0.45312-0.38672 0.85937-0.76953 1.2422-1.1719 0.015625-0.015625 0.035156-0.035156 0.050781-0.050782 0.875-0.91016 1.6797-1.9062 2.3633-2.9922l0.050781-0.085937c-0.050781 0.10547-0.035157 0.085937-0.035157 0.085937l0.050782-0.10547c0.29688-0.45312 0.62891-1.0156 0.92578-1.5938l0.050781-0.10547c-0.050781 0.10547-0.035156 0.085937-0.035156 0.085937l0.050781-0.10547c0.54297-1.0508 1.0312-2.2734 1.3828-3.5508l0.035156-0.14062c-0.015625 0.10547-0.015625 0.085938-0.015625 0.050781l0.035156-0.14062c0.40234-1.4336 0.64844-3.0625 0.68359-4.7617v-0.015626c0.015625-0.10547 0.015625-0.26172 0.015625-0.4375v-159.93-0.26172c0-11.043-8.9414-19.984-19.984-19.984h-0.31641 0.015625z"/>
</svg>
