<?xml version="1.0" standalone="no"?>
<!DOCTYPE svg PUBLIC "-//W3C//DTD SVG 1.1//EN" "http://www.w3.org/Graphics/SVG/1.1/DTD/svg11.dtd"><svg xmlns="http://www.w3.org/2000/svg" style="background-color:#FFF" width="933" height="933"><path stroke="black" fill="none" stroke-width="1" d="M175.28, 459.76L175.275, 459.756L174.23, 459.653L173.218, 459.353L172.272, 458.87L171.425, 458.216L170.709, 457.405L170.158, 456.45L169.804, 455.365L169.681, 454.162L169.681, 140.562L169.784, 139.356L170.084, 138.268L170.568, 137.312L171.222, 136.5L172.034, 135.846L172.99, 135.362L174.077, 135.063L175.282, 134.96L354.482, 134.96L354.482, 146.158L180.882, 146.158L180.882, 448.558L483.282, 448.558L483.282, 274.958L494.482, 274.958L494.482, 454.158L494.379, 455.365L494.079, 456.452L493.595, 457.409L492.941, 458.221L492.129, 458.874L491.173, 459.358L490.085, 459.657L488.88, 459.76L175.28, 459.76"/><path stroke="black" fill="none" stroke-width="1" d="M530.32, 208.32L519.122, 208.322L519.122, 119.283L345.522, 292.323L337.682, 284.483L511.282, 111.443L421.68, 111.443L421.68, 100.24L530.32, 100.24L530.32, 208.32"/></svg>